<?xml version="1.0" encoding="iso-8859-1"?>
<!-- Generator: Adobe Illustrator 18.1.1, SVG Export Plug-In . SVG Version: 6.00 Build 0)  -->
<svg version="1.1" id="Capa_1" xmlns="http://www.w3.org/2000/svg" xmlns:xlink="http://www.w3.org/1999/xlink" x="0px" y="0px"
	 viewBox="0 0 107.226 107.226" style="enable-background:new 0 0 107.226 107.226;" xml:space="preserve">
<g>
	<path style="fill:#010002;" d="M26.578,44.227l1.192-3.69h6.896l1.231,3.69h2.011h2.015l-6.431-18.173h-2.201h-2.201l-6.431,18.173
		h1.968C24.628,44.227,26.578,44.227,26.578,44.227z M31.238,30.102l2.412,7.312h-4.824L31.238,30.102z M61.687,41.844H42.69v-3.579
		h23.796v3.042C64.872,41.311,63.265,41.5,61.687,41.844z M66.49,29.987H42.697v-3.579H66.49V29.987z M20.967,86.648h45.53v3.579
		h-45.53V86.648z M48.864,77.7H21.385v-3.579h25.163C47.2,75.374,47.969,76.577,48.864,77.7z M44.111,65.554h-22.3v-3.579h22.311
		C44.022,63.163,44.014,64.366,44.111,65.554z M46.437,53.69H21.811v-3.579h26.881C47.815,51.253,47.06,52.448,46.437,53.69z
		 M85.003,3.439L88.274,0H24.445L9.203,11.009v96.217h71.258v-2.877v-1.195v-1.202v-5.923V81.34
		c-1.918,1.532-4.044,2.684-6.277,3.504v10.969H14.797V18.198h59.387v24.479c2.215,0.809,4.338,1.976,6.277,3.514V11.005H21.203
		h-4.914l10.472-7.569h58.242V3.439z M41.08,98.726h5.368v5.368H41.08V98.726z M66.468,83.008c-4.484,0-8.854-1.585-12.301-4.459
		c-8.145-6.793-9.248-18.95-2.455-27.099c3.665-4.398,9.058-6.929,14.791-6.929c4.488,0,8.861,1.585,12.304,4.459
		c3.947,3.285,6.378,7.92,6.839,13.038s-1.099,10.114-4.391,14.065C77.591,80.485,72.198,83.008,66.468,83.008z M66.504,48.1
		c-4.67,0-9.058,2.054-12.043,5.64c-5.529,6.635-4.635,16.531,1.997,22.06c2.806,2.333,6.36,3.629,10.006,3.629
		c4.667,0,9.058-2.054,12.046-5.64c2.681-3.21,3.951-7.283,3.572-11.449s-2.355-7.934-5.565-10.611
		C73.708,49.385,70.154,48.1,66.504,48.1z M88.704,84.608l-9.96-8.296l2.294-2.749l9.96,8.296L88.704,84.608z M94.584,90.674
		L81.617,79.862l3.439-4.119l12.966,10.808L94.584,90.674z"/>
</g>
<g>
</g>
<g>
</g>
<g>
</g>
<g>
</g>
<g>
</g>
<g>
</g>
<g>
</g>
<g>
</g>
<g>
</g>
<g>
</g>
<g>
</g>
<g>
</g>
<g>
</g>
<g>
</g>
<g>
</g>
</svg>
